<svg xmlns="http://www.w3.org/2000/svg" xmlns:xlink="http://www.w3.org/1999/xlink" viewBox="0 0 64 64" width="64" height="64">
  <defs>
    <!-- React Blue Gradient -->
    <linearGradient id="reactGrad" x1="0%" y1="0%" x2="100%" y2="100%">
      <stop offset="0%" style="stop-color:#61dafb;stop-opacity:1" />
      <stop offset="100%" style="stop-color:#21a6c7;stop-opacity:1" />
    </linearGradient>
    
    <!-- Vite Purple Gradient -->
    <linearGradient id="viteGrad" x1="0%" y1="0%" x2="100%" y2="100%">
      <stop offset="0%" style="stop-color:#bd34fe;stop-opacity:1" />
      <stop offset="100%" style="stop-color:#8b5cf6;stop-opacity:1" />
    </linearGradient>
    
    <!-- Enhanced Orange/Coral Gradient for N -->
    <linearGradient id="orangeGrad" x1="0%" y1="0%" x2="100%" y2="100%">
      <stop offset="0%" style="stop-color:#ff6b6b;stop-opacity:1" />
      <stop offset="50%" style="stop-color:#ffa726;stop-opacity:1" />
      <stop offset="100%" style="stop-color:#ff8a50;stop-opacity:1" />
    </linearGradient>
    
    <!-- Enhanced React Blue Gradient -->
    <linearGradient id="reactGradEnhanced" x1="0%" y1="0%" x2="100%" y2="100%">
      <stop offset="0%" style="stop-color:#00d4ff;stop-opacity:1" />
      <stop offset="100%" style="stop-color:#0ea5e9;stop-opacity:1" />
    </linearGradient>
    
    <!-- Main Background Gradient -->
    <linearGradient id="bgGrad" x1="0%" y1="0%" x2="100%" y2="100%">
      <stop offset="0%" style="stop-color:#1e293b;stop-opacity:1" />
      <stop offset="50%" style="stop-color:#0f172a;stop-opacity:1" />
      <stop offset="100%" style="stop-color:#020617;stop-opacity:1" />
    </linearGradient>
    
    <filter id="shadow" x="-20%" y="-20%" width="140%" height="140%">
      <feDropShadow dx="0" dy="2" stdDeviation="3" flood-color="rgba(0,0,0,0.4)"/>
    </filter>
    
    <filter id="glow" x="-20%" y="-20%" width="140%" height="140%">
      <feGaussianBlur stdDeviation="1" result="coloredBlur"/>
      <feMerge> 
        <feMergeNode in="coloredBlur"/>
        <feMergeNode in="SourceGraphic"/>
      </feMerge>
    </filter>
  </defs>
  
  <!-- Background circle with dark gradient -->
  <circle cx="32" cy="32" r="30" fill="url(#bgGrad)" filter="url(#shadow)"/>
  
  <!-- Modified React atomic orbits - slightly smaller and repositioned -->
  <ellipse cx="32" cy="32" rx="24" ry="9" fill="none" stroke="url(#reactGradEnhanced)" stroke-width="1.6" opacity="0.5"/>
  <ellipse cx="32" cy="32" rx="24" ry="9" fill="none" stroke="url(#reactGradEnhanced)" stroke-width="1.6" opacity="0.5" transform="rotate(45 32 32)"/>
  <ellipse cx="32" cy="32" rx="24" ry="9" fill="none" stroke="url(#reactGradEnhanced)" stroke-width="1.6" opacity="0.5" transform="rotate(-45 32 32)"/>
  
  <!-- React atom center dot -->
  <circle cx="32" cy="32" r="2.2" fill="url(#reactGradEnhanced)" filter="url(#glow)"/>
  
  <!-- Letter L integrated with React logo (left side) -->
  <path d="M 18 19 L 18 45 L 32 45 L 32 41 L 22 41 L 22 19 Z" fill="url(#reactGradEnhanced)" filter="url(#glow)" stroke="rgba(255,255,255,0.3)" stroke-width="0.8" opacity="0.9"/>
  
  <!-- Letter N (right side) -->
  <path d="M 35 19 L 35 45 L 39 45 L 39 26 L 43 45 L 47 45 L 47 19 L 43 19 L 43 38 L 39 19 Z" fill="url(#orangeGrad)" filter="url(#glow)" stroke="rgba(255,255,255,0.3)" stroke-width="0.8" opacity="0.9"/>
  
  <!-- Additional React electron dots on modified orbits -->
  <circle cx="56" cy="32" r="1.3" fill="url(#reactGradEnhanced)" opacity="0.8"/>
  <circle cx="8" cy="32" r="1.3" fill="url(#reactGradEnhanced)" opacity="0.8"/>
  <circle cx="32" cy="8" r="1" fill="url(#viteGrad)" opacity="0.7"/>
  <circle cx="32" cy="56" r="1" fill="url(#orangeGrad)" opacity="0.7"/>
  <circle cx="49" cy="18" r="0.8" fill="url(#orangeGrad)" opacity="0.7"/>
  <circle cx="15" cy="46" r="0.8" fill="url(#orangeGrad)" opacity="0.7"/>
  <circle cx="49" cy="46" r="0.8" fill="url(#viteGrad)" opacity="0.6"/>
  <circle cx="15" cy="18" r="0.8" fill="url(#viteGrad)" opacity="0.6"/>
  
  <!-- Subtle accent elements -->
  <path d="M 53 8 L 51 12 L 53 12 L 51 16 L 55 10 L 53 10 Z" fill="url(#orangeGrad)" opacity="0.5" filter="url(#glow)"/>
</svg>
